<mxfile host="app.diagrams.net" modified="2023-06-11T04:44:39.602Z" agent="Mozilla/5.0 (Windows NT 10.0; Win64; x64) AppleWebKit/537.36 (KHTML, like Gecko) Chrome/114.0.0.0 Safari/537.36" etag="su_exGKA2R1jpsDMrLGa" version="21.3.5" type="device" pages="2">
  <diagram name="W/out LB" id="mxPa_5SoESJ5Fia4KzJ7">
    <mxGraphModel dx="1434" dy="834" grid="1" gridSize="10" guides="1" tooltips="1" connect="1" arrows="1" fold="1" page="1" pageScale="1" pageWidth="850" pageHeight="1100" math="0" shadow="0">
      <root>
        <mxCell id="0" />
        <mxCell id="1" parent="0" />
        <mxCell id="yo_Wg0FaxVeCbBizyP4D-5" style="edgeStyle=orthogonalEdgeStyle;rounded=0;orthogonalLoop=1;jettySize=auto;html=1;entryX=0;entryY=0.5;entryDx=0;entryDy=0;" edge="1" parent="1" source="yo_Wg0FaxVeCbBizyP4D-3" target="yo_Wg0FaxVeCbBizyP4D-4">
          <mxGeometry relative="1" as="geometry" />
        </mxCell>
        <mxCell id="yo_Wg0FaxVeCbBizyP4D-3" value="Client (terminal wrk)" style="rounded=1;whiteSpace=wrap;html=1;" vertex="1" parent="1">
          <mxGeometry x="150" y="410" width="120" height="60" as="geometry" />
        </mxCell>
        <mxCell id="yo_Wg0FaxVeCbBizyP4D-4" value="Server" style="rounded=1;whiteSpace=wrap;html=1;" vertex="1" parent="1">
          <mxGeometry x="425" y="410" width="120" height="60" as="geometry" />
        </mxCell>
      </root>
    </mxGraphModel>
  </diagram>
  <diagram id="z0NwzMyTA64y00syxBzS" name="W/ LB">
    <mxGraphModel dx="1434" dy="834" grid="1" gridSize="10" guides="1" tooltips="1" connect="1" arrows="1" fold="1" page="1" pageScale="1" pageWidth="850" pageHeight="1100" math="0" shadow="0">
      <root>
        <mxCell id="0" />
        <mxCell id="1" parent="0" />
        <mxCell id="8VYWoj4YsY-5rEGCCNCX-3" style="edgeStyle=orthogonalEdgeStyle;rounded=0;orthogonalLoop=1;jettySize=auto;html=1;" edge="1" parent="1" source="8VYWoj4YsY-5rEGCCNCX-1" target="8VYWoj4YsY-5rEGCCNCX-2">
          <mxGeometry relative="1" as="geometry" />
        </mxCell>
        <mxCell id="8VYWoj4YsY-5rEGCCNCX-1" value="Client (terminal wrk)" style="rounded=1;whiteSpace=wrap;html=1;" vertex="1" parent="1">
          <mxGeometry x="110" y="390" width="120" height="60" as="geometry" />
        </mxCell>
        <mxCell id="8VYWoj4YsY-5rEGCCNCX-8" style="edgeStyle=orthogonalEdgeStyle;rounded=0;orthogonalLoop=1;jettySize=auto;html=1;entryX=0;entryY=0.5;entryDx=0;entryDy=0;" edge="1" parent="1" source="8VYWoj4YsY-5rEGCCNCX-2" target="8VYWoj4YsY-5rEGCCNCX-5">
          <mxGeometry relative="1" as="geometry" />
        </mxCell>
        <mxCell id="8VYWoj4YsY-5rEGCCNCX-9" style="edgeStyle=orthogonalEdgeStyle;rounded=0;orthogonalLoop=1;jettySize=auto;html=1;entryX=0;entryY=0.5;entryDx=0;entryDy=0;" edge="1" parent="1" source="8VYWoj4YsY-5rEGCCNCX-2" target="8VYWoj4YsY-5rEGCCNCX-4">
          <mxGeometry relative="1" as="geometry" />
        </mxCell>
        <mxCell id="8VYWoj4YsY-5rEGCCNCX-11" style="edgeStyle=orthogonalEdgeStyle;rounded=0;orthogonalLoop=1;jettySize=auto;html=1;entryX=0;entryY=0.5;entryDx=0;entryDy=0;" edge="1" parent="1" source="8VYWoj4YsY-5rEGCCNCX-2" target="8VYWoj4YsY-5rEGCCNCX-6">
          <mxGeometry relative="1" as="geometry" />
        </mxCell>
        <mxCell id="8VYWoj4YsY-5rEGCCNCX-12" style="edgeStyle=orthogonalEdgeStyle;rounded=0;orthogonalLoop=1;jettySize=auto;html=1;entryX=0;entryY=0.5;entryDx=0;entryDy=0;" edge="1" parent="1" source="8VYWoj4YsY-5rEGCCNCX-2" target="8VYWoj4YsY-5rEGCCNCX-10">
          <mxGeometry relative="1" as="geometry" />
        </mxCell>
        <mxCell id="8VYWoj4YsY-5rEGCCNCX-2" value="Load Balancer" style="rounded=1;whiteSpace=wrap;html=1;" vertex="1" parent="1">
          <mxGeometry x="350" y="390" width="120" height="60" as="geometry" />
        </mxCell>
        <mxCell id="8VYWoj4YsY-5rEGCCNCX-4" value="Server 2" style="rounded=1;whiteSpace=wrap;html=1;" vertex="1" parent="1">
          <mxGeometry x="610" y="300" width="120" height="60" as="geometry" />
        </mxCell>
        <mxCell id="8VYWoj4YsY-5rEGCCNCX-5" value="Server 1" style="rounded=1;whiteSpace=wrap;html=1;" vertex="1" parent="1">
          <mxGeometry x="610" y="140" width="120" height="60" as="geometry" />
        </mxCell>
        <mxCell id="8VYWoj4YsY-5rEGCCNCX-6" value="Server 3" style="rounded=1;whiteSpace=wrap;html=1;" vertex="1" parent="1">
          <mxGeometry x="610" y="460" width="120" height="60" as="geometry" />
        </mxCell>
        <mxCell id="8VYWoj4YsY-5rEGCCNCX-10" value="Server 4" style="rounded=1;whiteSpace=wrap;html=1;" vertex="1" parent="1">
          <mxGeometry x="610" y="620" width="120" height="60" as="geometry" />
        </mxCell>
      </root>
    </mxGraphModel>
  </diagram>
</mxfile>
